<svg xmlns="http://www.w3.org/2000/svg" viewBox="0 0 161.55 28.2"><defs><style>.cls-1{fill:#fff;}</style></defs><title>Asset 4</title><g id="Layer_2" data-name="Layer 2"><g id="Layer_1-2" data-name="Layer 1"><g id="LieferandoDE"><g id="LieferandoDE_Full_Colour" data-name="LieferandoDE Full Colour"><path id="House" class="cls-1" d="M13.12.3a1.5,1.5,0,0,1,1.8,0c1.4.9,2.7,1.8,4,2.8,0,0,.3.2.4-.2a4.13,4.13,0,0,1,.1-1.5.75.75,0,0,1,.7-.5s1.5.1,2.5.2a1,1,0,0,1,.8.9s.6,4.2.8,5.7a4.69,4.69,0,0,0,1.2,2.1,42,42,0,0,1,2.5,3.8s.5,1.1-.6,1.2c0,0-2.1.2-2.3.3a.56.56,0,0,0-.5.6h0s-.1,7.3-.6,10.9c0,0-.1,1.4-.9,1.4,0,0-2.1-.1-2.6-.1,0,0-.2,0-.2-.3,0,0,1.1-11.4.4-17.2a1,1,0,0,0-.6-.9s-.5-.2-1,.5a18.09,18.09,0,0,0-3.4,10.3,6.8,6.8,0,0,0,.2,2.3s.2.3,1.1.4l1.1.2s.2,0,.2.3c0,0-.3,3.4-.3,4a.6.6,0,0,1-.1.4.58.58,0,0,1-.4.1h-5.5a.49.49,0,0,1-.3-.1c-.1-.2-.3-4.3-.3-4.9,0-.1.1-.2.2-.3a3,3,0,0,0,1.4-2.2,7.85,7.85,0,0,0,0-1.9s.2-6.4.2-7.5c0,0,.1-.3-.4-.4a.38.38,0,0,0-.5.3h0s-.3,4.3-.3,5.9c0,0,.1,1.1-.6,1.1,0,0-.7.1-.8-.8,0,0,.1-4.1.2-6.2a.43.43,0,0,0-.4-.4c-.2-.1-.5.1-.5.4h0s-.3,4-.3,6c0,0,.1,1-.7,1,0,0-.7.1-.7-.8,0,0,.2-5.7.2-6.1a.46.46,0,0,0-.4-.5h-.1c-.2,0-.5.1-.5.4v.1S7,17.9,7,19.9a3.63,3.63,0,0,0,1.5,2.9.37.37,0,0,1,.2.3s.2,3.6.3,4.8c0,0,.1.3-.2.3L5,28s-.6.1-.8-.7a95,95,0,0,1-.7-11.5.56.56,0,0,0-.5-.6s-1.9-.2-2.4-.3a.83.83,0,0,1-.6-1c0-.1.1-.1.1-.2A41.22,41.22,0,0,1,13.12.3Z"/></g><g id="ThuisbezorgdNL-2"><path class="cls-1" d="M116.33,14.9a5.37,5.37,0,0,0-1.6-1,6.82,6.82,0,0,0-4,0,3.36,3.36,0,0,0-1.6,1,4.18,4.18,0,0,0-1.1,1.5,6.94,6.94,0,0,0,0,4.5,3.27,3.27,0,0,0,1.1,1.5,5.37,5.37,0,0,0,1.6,1,5.52,5.52,0,0,0,4,0,3.36,3.36,0,0,0,1.6-1,5.27,5.27,0,0,0,1.1-1.5,6.94,6.94,0,0,0,0-4.5,4.79,4.79,0,0,0-1.1-1.5m-1.9,5.8a2.48,2.48,0,0,1-3.4,0,3.17,3.17,0,0,1-.6-2,3.38,3.38,0,0,1,.6-2,2.48,2.48,0,0,1,3.4,0,3.17,3.17,0,0,1,.6,2,3,3,0,0,1-.6,2"/><path class="cls-1" d="M44.53,10.2h-9.8a.43.43,0,0,0-.4.4v1.8a.43.43,0,0,0,.4.4h3.2a.22.22,0,0,1,.2.2V23.2a.43.43,0,0,0,.4.4h2.2a.43.43,0,0,0,.4-.4V13a.22.22,0,0,1,.2-.2h3.2a.43.43,0,0,0,.4-.4V10.6a.37.37,0,0,0-.4-.4"/><path class="cls-1" d="M97.23,14.9a3.59,3.59,0,0,0-1.4-1,5.66,5.66,0,0,0-1.8-.3,6.45,6.45,0,0,0-2,.3,3.36,3.36,0,0,0-1.6,1,4.18,4.18,0,0,0-1.1,1.5,6.94,6.94,0,0,0,0,4.5,3.27,3.27,0,0,0,1.1,1.5,5.37,5.37,0,0,0,1.6,1,6.45,6.45,0,0,0,2,.3,5.85,5.85,0,0,0,2.2-.5,4.51,4.51,0,0,0,1.4-1,.64.64,0,0,0,0-.6l-1.3-1h0v.2c-.2-.1-.4-.1-.5.1a2.65,2.65,0,0,1-.6.5,2.35,2.35,0,0,1-2.6-.2,2.36,2.36,0,0,1-.7-1.6.22.22,0,0,1,.2-.2h6a.43.43,0,0,0,.4-.4v-.4a6.45,6.45,0,0,0-.3-2,6.93,6.93,0,0,0-1-1.7m-1.9,2.5H92a.22.22,0,0,1-.2-.2c0-.1.1-.3.1-.4a1,1,0,0,1,.4-.5,2,2,0,0,1,1.5-.5,2.11,2.11,0,0,1,1.3.5,1.91,1.91,0,0,1,.5,1c-.1,0-.2.1-.3.1"/><path class="cls-1" d="M87.13,15.1a4.73,4.73,0,0,0-1.3-1.1,3.66,3.66,0,0,0-1.8-.4,5.08,5.08,0,0,0-1.7.3,1.8,1.8,0,0,0-.9.6h-.1a.1.1,0,0,1-.1-.1V9.6a.43.43,0,0,0-.4-.4h-2a.43.43,0,0,0-.4.4V23.2a.43.43,0,0,0,.4.4h1.8a.43.43,0,0,0,.4-.4v-.4a.1.1,0,0,1,.1-.1h.1l.2.2c.2.2.4.3.6.5a6.89,6.89,0,0,0,.8.3,2.77,2.77,0,0,0,.9.1,6.28,6.28,0,0,0,1.9-.3,4.51,4.51,0,0,0,1.4-1,3.77,3.77,0,0,0,.9-1.5,7.85,7.85,0,0,0,0-4.3,3.46,3.46,0,0,0-.8-1.6m-2.3,5.6a2.48,2.48,0,0,1-3.4,0,3.17,3.17,0,0,1-.6-2,2.88,2.88,0,0,1,.6-1.9,2.48,2.48,0,0,1,3.4,0,2.88,2.88,0,0,1,.6,1.9,3.17,3.17,0,0,1-.6,2"/><path class="cls-1" d="M146,9.3h-2a.43.43,0,0,0-.4.4v4.8a.1.1,0,0,1-.1.1h-.1l-.9-.6a4.67,4.67,0,0,0-1.7-.3,3.92,3.92,0,0,0-1.8.4,3.48,3.48,0,0,0-1.3,1.1,4.81,4.81,0,0,0-.8,1.6,7.85,7.85,0,0,0,0,4.3,3.77,3.77,0,0,0,.9,1.5,4.51,4.51,0,0,0,1.4,1,4,4,0,0,0,1.9.3,2.77,2.77,0,0,0,.9-.1,6.89,6.89,0,0,0,.8-.3,2.65,2.65,0,0,0,.6-.5l.2-.2h0a.14.14,0,0,1,.2,0v.4a.43.43,0,0,0,.4.4H146a.43.43,0,0,0,.4-.4V9.7h0a.43.43,0,0,0-.4-.4m-2.8,11.4a2.48,2.48,0,0,1-3.4,0,3.17,3.17,0,0,1-.6-2,2.88,2.88,0,0,1,.6-1.9,2.48,2.48,0,0,1,3.4,0,2.88,2.88,0,0,1,.6,1.9,3.17,3.17,0,0,1-.6,2"/><path class="cls-1" d="M67.13,9.3a1.7,1.7,0,1,0,1.7,1.7,1.85,1.85,0,0,0-.5-1.2,2.08,2.08,0,0,0-1.2-.5"/><path class="cls-1" d="M68,13.9H66a.43.43,0,0,0-.4.4v9a.43.43,0,0,0,.4.4h2a.43.43,0,0,0,.4-.4v-9c.1-.2-.1-.4-.4-.4"/><path class="cls-1" d="M135,13.9h-1.8a.43.43,0,0,0-.4.4v.4c0,.1-.1.1-.2.1h-.1l-.2-.2a4.23,4.23,0,0,0-.7-.5,3.18,3.18,0,0,0-.9-.3,4.1,4.1,0,0,0-1.1-.1,3.92,3.92,0,0,0-1.8.4,3.48,3.48,0,0,0-1.3,1.1,5.48,5.48,0,0,0-.8,1.5,7.5,7.5,0,0,0,0,4.2,3.77,3.77,0,0,0,.9,1.5,4.51,4.51,0,0,0,1.4,1,4,4,0,0,0,1.9.3,3.53,3.53,0,0,0,1.4-.3,2.36,2.36,0,0,0,.9-.6h0l.1-.1h.1a.1.1,0,0,1,.1.1v.5a2.27,2.27,0,0,1-.6,1.6,2.71,2.71,0,0,1-1.9.6,4.53,4.53,0,0,1-1.6-.3c-.4-.2-.7-.4-1.1-.6a.47.47,0,0,0-.6.1l-1.1,1.7c-.1.2-.1.5.1.6a4.55,4.55,0,0,0,1.9.8,9.86,9.86,0,0,0,2.4.3,5,5,0,0,0,4-1.4,5.52,5.52,0,0,0,1.3-4V14.1c.1-.1-.1-.2-.3-.2m-2.4,5.9a1.79,1.79,0,0,1-.5.7,3,3,0,0,1-.7.5,2.78,2.78,0,0,1-1.8,0,1.79,1.79,0,0,1-.7-.5,1.79,1.79,0,0,1-.5-.7,3.59,3.59,0,0,1-.2-1.1,2.54,2.54,0,0,1,.2-1.2,1.79,1.79,0,0,1,.5-.7,1.79,1.79,0,0,1,.7-.5,2.77,2.77,0,0,1,1.8,0,1.79,1.79,0,0,1,.7.5,1.79,1.79,0,0,1,.5.7,5,5,0,0,1,.2,1.2,2,2,0,0,1-.2,1.1"/><path class="cls-1" d="M53.83,14.9a2.19,2.19,0,0,0-1-.9,5.23,5.23,0,0,0-1.8-.3,3.75,3.75,0,0,0-1,.1c-.3.1-.5.2-.8.3a1.21,1.21,0,0,0-.5.5h0v.1h-.2V9.8a.43.43,0,0,0-.4-.4h-2a.43.43,0,0,0-.4.4V23.2a.43.43,0,0,0,.4.4h2a.43.43,0,0,0,.4-.4h0V17.6a1.45,1.45,0,0,1,.2-.7,1.21,1.21,0,0,1,.5-.5,2.92,2.92,0,0,1,.9-.2,1.34,1.34,0,0,1,1.3.8c.1.2.1.5.2.8v5.4a.43.43,0,0,0,.4.4h2a.43.43,0,0,0,.4-.4h0V18a9.15,9.15,0,0,0-.1-1.7,3.36,3.36,0,0,0-.5-1.4"/><path class="cls-1" d="M124.83,13.6h-.5a2.93,2.93,0,0,0-1.6.4,3,3,0,0,0-.8.8h-.1c-.1,0-.1,0-.1-.1v-.6a.43.43,0,0,0-.4-.4h-2a.43.43,0,0,0-.4.4v9a.43.43,0,0,0,.4.4h2a.43.43,0,0,0,.4-.4v-4a6.15,6.15,0,0,1,.1-1.3,1.93,1.93,0,0,1,.3-1,1.34,1.34,0,0,1,.7-.6,3.55,3.55,0,0,1,1-.2h1a.43.43,0,0,0,.4-.4V13.9c.1-.1-.1-.3-.4-.3"/><path class="cls-1" d="M76,18.3a4.33,4.33,0,0,0-1.2-.5l-1.2-.3-.9-.3a.55.55,0,0,1-.3-.5.71.71,0,0,1,.3-.6,1.45,1.45,0,0,1,.7-.2,2.39,2.39,0,0,1,1.4.5.64.64,0,0,0,.6,0l1.2-1.2a.64.64,0,0,0,0-.6,3.29,3.29,0,0,0-1.3-.7,5.66,5.66,0,0,0-1.8-.3,5.9,5.9,0,0,0-1.4.2,2.73,2.73,0,0,0-1.2.6,2.84,2.84,0,0,0-.9,1,3.9,3.9,0,0,0,0,3,3.82,3.82,0,0,0,.9.9,4.33,4.33,0,0,0,1.2.5l1.2.3.9.3a.6.6,0,0,1,.3.6c0,.2-.1.5-.4.5a2.77,2.77,0,0,1-.9.1,2,2,0,0,1-1.1-.3,2.65,2.65,0,0,1-.6-.5.64.64,0,0,0-.6,0l-1.2,1.4a.47.47,0,0,0,.1.6h0a3.69,3.69,0,0,0,1.4.7,6.45,6.45,0,0,0,2,.3,7.57,7.57,0,0,0,1.5-.1,7.84,7.84,0,0,0,1.4-.5,3.18,3.18,0,0,0,1-1,2.93,2.93,0,0,0,.4-1.6,4,4,0,0,0-.3-1.5c-.5-.3-.8-.6-1.2-.8"/><path class="cls-1" d="M63.93,13.9h-2a.43.43,0,0,0-.4.4v5.6a1.45,1.45,0,0,1-.2.7,1.21,1.21,0,0,1-.5.5,2.92,2.92,0,0,1-.9.2,1.08,1.08,0,0,1-.8-.2.92.92,0,0,1-.4-.6c-.1-.2-.1-.5-.2-.8V14.3a.43.43,0,0,0-.4-.4h-2a.43.43,0,0,0-.4.4h0v5.2a9.15,9.15,0,0,0,.1,1.7,3.36,3.36,0,0,0,.5,1.4,2.19,2.19,0,0,0,1,.9,5.23,5.23,0,0,0,1.8.3,2.77,2.77,0,0,0,.9-.1c.3-.1.5-.2.8-.3a2.65,2.65,0,0,0,.6-.5c0-.1.1-.1.1-.2h.1a.1.1,0,0,1,.1.1v.4a.43.43,0,0,0,.4.4H64a.43.43,0,0,0,.4-.4v-9a.55.55,0,0,0-.5-.3"/><path class="cls-1" d="M106.73,21.4h-4.4a.1.1,0,0,1-.1-.1v-.1h0l4.1-3.9.2-.2a.71.71,0,0,0,.3-.6v-2a.43.43,0,0,0-.4-.4h-7.1a.43.43,0,0,0-.4.4v1.4a.43.43,0,0,0,.4.4h3.9a.1.1,0,0,1,.1.1v.1l-3.7,3.6h0l-.5.5-.1.1a1.07,1.07,0,0,0-.2.6v1.9a.43.43,0,0,0,.4.4h7.4a.43.43,0,0,0,.4-.4h0V21.8h0c.2-.2,0-.4-.3-.4"/><path class="cls-1" d="M161.23,9.1h-.7a.43.43,0,0,0-.4.4V23.2a.43.43,0,0,0,.4.4h.6a.43.43,0,0,0,.4-.4V9.5c.1-.2-.1-.4-.3-.4"/><path class="cls-1" d="M157.93,14.7a2.59,2.59,0,0,0-1.1-.7,4,4,0,0,0-1.5-.3,4.14,4.14,0,0,0-1.9.5,3,3,0,0,0-.7.5l-.1.1h0v.1h-.1c-.1,0-.1,0-.1-.1v-.6a.43.43,0,0,0-.4-.4h-.7a.43.43,0,0,0-.4.4v9a.43.43,0,0,0,.4.4h.7a.43.43,0,0,0,.4-.4h0V18.5a3.4,3.4,0,0,1,.2-1.4,3.7,3.7,0,0,1,.5-1.1,2.18,2.18,0,0,1,.9-.7,2.74,2.74,0,0,1,1.3-.2,1.86,1.86,0,0,1,1.6.7,3.74,3.74,0,0,1,.5,1.8v5.6a.43.43,0,0,0,.4.4h.7a.43.43,0,0,0,.4-.4V17.3a7.72,7.72,0,0,0-.2-1.5,10.47,10.47,0,0,0-.8-1.1"/><path class="cls-1" d="M148.63,21.7a.78.78,0,0,0-.7.3,1.09,1.09,0,0,0,0,1.5,1,1,0,0,0,1.5,0h0a1.09,1.09,0,0,0,0-1.5,1.6,1.6,0,0,0-.8-.3"/></g></g></g></g></svg>